HIERARCHY
ROOT Hips
{
  OFFSET -4.35178 90.3298 111.633
  CHANNELS 6 Xposition Yposition Zposition Zrotation Xrotation Yrotation
  JOINT LeftUpLeg
  {
    OFFSET 0.103456 1.85784 10.5485
    CHANNELS 6 Xposition Yposition Zposition Zrotation Xrotation Yrotation
    JOINT LeftLeg
    {
      OFFSET 43.5 -4.2e-05 0
      CHANNELS 6 Xposition Yposition Zposition Zrotation Xrotation Yrotation
      JOINT LeftFoot
      {
        OFFSET 42.3722 1.9e-05 0
        CHANNELS 6 Xposition Yposition Zposition Zrotation Xrotation Yrotation
        JOINT LeftToe
        {
          OFFSET 17.3 0 0
          CHANNELS 6 Xposition Yposition Zposition Zrotation Xrotation Yrotation
          End Site
          {
            OFFSET 0 0 0
          }
        }
      }
    }
  }
  JOINT RightUpLeg
  {
    OFFSET 0.103456 1.85782 -10.5485
    CHANNELS 6 Xposition Yposition Zposition Zrotation Xrotation Yrotation
    JOINT RightLeg
    {
      OFFSET 43.5 -2.7e-05 0
      CHANNELS 6 Xposition Yposition Zposition Zrotation Xrotation Yrotation
      JOINT RightFoot
      {
        OFFSET 42.3723 0 0
        CHANNELS 6 Xposition Yposition Zposition Zrotation Xrotation Yrotation
        JOINT RightToe
        {
          OFFSET 17.3 0 1.7e-05
          CHANNELS 6 Xposition Yposition Zposition Zrotation Xrotation Yrotation
          End Site
          {
            OFFSET 0 0 0
          }
        }
      }
    }
  }
  JOINT Spine
  {
    OFFSET 6.90197 -2.60373 0
    CHANNELS 6 Xposition Yposition Zposition Zrotation Xrotation Yrotation
    JOINT Spine1
    {
      OFFSET 12.5881 0 0
      CHANNELS 6 Xposition Yposition Zposition Zrotation Xrotation Yrotation
      JOINT Spine2
      {
        OFFSET 12.3432 -1.8e-05 0
        CHANNELS 6 Xposition Yposition Zposition Zrotation Xrotation Yrotation
        JOINT Neck
        {
          OFFSET 25.8329 2.3e-05 0
          CHANNELS 6 Xposition Yposition Zposition Zrotation Xrotation Yrotation
          JOINT Head
          {
            OFFSET 11.7666 0 0
            CHANNELS 6 Xposition Yposition Zposition Zrotation Xrotation Yrotation
            End Site
            {
              OFFSET 0 0 0
            }
          }
        }
        JOINT LeftShoulder
        {
          OFFSET 19.7459 -1.48035 6.0001
          CHANNELS 6 Xposition Yposition Zposition Zrotation Xrotation Yrotation
          JOINT LeftArm
          {
            OFFSET 11.2841 1.8e-05 -2e-05
            CHANNELS 6 Xposition Yposition Zposition Zrotation Xrotation Yrotation
            JOINT LeftForeArm
            {
              OFFSET 33 -1.3e-05 1.9e-05
              CHANNELS 6 Xposition Yposition Zposition Zrotation Xrotation Yrotation
              JOINT LeftHand
              {
                OFFSET 25.2 3.2e-05 1.1e-05
                CHANNELS 6 Xposition Yposition Zposition Zrotation Xrotation Yrotation
                End Site
                {
                  OFFSET 0 0 0
                }
              }
            }
          }
        }
        JOINT RightShoulder
        {
          OFFSET 19.7461 -1.48036 -6.00008
          CHANNELS 6 Xposition Yposition Zposition Zrotation Xrotation Yrotation
          JOINT RightArm
          {
            OFFSET 11.2841 0 0
            CHANNELS 6 Xposition Yposition Zposition Zrotation Xrotation Yrotation
            JOINT RightForeArm
            {
              OFFSET 33.0001 1.6e-05 0
              CHANNELS 6 Xposition Yposition Zposition Zrotation Xrotation Yrotation
              JOINT RightHand
              {
                OFFSET 25.1998 0.000123 0.000432
                CHANNELS 6 Xposition Yposition Zposition Zrotation Xrotation Yrotation
                End Site
                {
                  OFFSET 0 0 0
                }
              }
            }
          }
        }
      }
    }
  }
}
MOTION
Frames:	4
Frame Time:	0.0333333
94.7752 87.5812 -165.323 86.2421 -31.8022 -1.78532 0.103456 1.85784 10.5485 -16.218 -7.45817 -179.964 43.5 -4.2e-05 1e-05 -41.6604 0.610306 5.5064 42.3722 1.9e-05 0 80.4535 4.92393 -8.19396 17.3 0 3e-06 21.4546 -1e-06 0.003093 0.103456 1.85782 -10.5485 -3.30449 3.66034 165.709 43.5 -2.7e-05 4e-06 -26.0578 4.72866 3.95575 42.3723 0 1e-05 83.4358 14.6797 2.77215 17.3 -6e-06 1.7e-05 21.4546 -1.9e-05 -0.003116 6.90197 -2.60373 -3e-06 8.7252 0.891631 -0.989936 12.5881 1e-05 8e-06 7.43691 1.70514 -2.0942 12.3432 -1.8e-05 -5e-06 7.09922 1.682 -2.1811 25.8329 2.3e-05 7e-06 6.22278 3.93615 -6.12628 11.7666 -8e-06 -6e-06 -17.1278 -3.85707 13.2098 19.7459 -1.48035 6.0001 178.62 0.413016 -96.2447 11.2841 1.8e-05 -2e-05 -24.073 -16.7211 66.6298 33 -1.3e-05 1.9e-05 -79.893 -1.42974 -5.18452 25.2 3.2e-05 1.1e-05 -27.6516 22.5386 6.74094 19.7461 -1.48036 -6.00008 -164.891 -6.62929 72.3408 11.2841 2.84217e-14 -1e-06 -19.1338 -11.4815 -45.1272 33.0001 1.6e-05 -1e-06 -123.175 -6.1817 26.6786 25.1998 0.000123 0.000432 -11.488 -16.1923 12.4194 
96.2773 87.4554 -166.958 86.8675 -26.9611 -0.939824 0.103456 1.85784 10.5485 -17.9129 -8.83508 -179.645 43.5 -4.2e-05 1e-05 -41.7777 1.65875 5.83175 42.3722 1.9e-05 0 79.6349 5.3223 -9.87297 17.3 -1.42109e-14 3e-06 21.4546 -1e-06 0.003093 0.103456 1.85782 -10.5485 -3.31693 1.81657 167.002 43.5 -2.7e-05 4e-06 -27.1978 5.88608 3.63468 42.3723 -1.42109e-14 1e-05 86.0863 14.8228 0.724635 17.3 -6e-06 1.7e-05 21.4546 -1.9e-05 -0.003116 6.90197 -2.60373 -3e-06 8.90991 1.29095 -0.896852 12.5881 1e-05 8e-06 7.80463 2.51699 -1.97847 12.3432 -1.8e-05 -5e-06 7.45629 2.50501 -2.11519 25.8329 2.3e-05 7e-06 6.41423 4.92605 -7.25886 11.7666 -8e-06 -6e-06 -19.4079 -1.07247 12.2728 19.7459 -1.48035 6.0001 178.64 0.664058 -96.0061 11.2841 1.8e-05 -2e-05 -22.616 -17.1595 66.8796 33 -1.3e-05 1.9e-05 -78.7486 -1.40342 -4.97351 25.2 3.2e-05 1.1e-05 -27.8931 22.2077 7.0257 19.7461 -1.48036 -6.00008 -164.701 -6.91529 71.7643 11.2841 0 -1e-06 -18.5649 -9.50392 -45.0924 33.0001 1.6e-05 -1e-06 -122.542 -8.13109 25.7665 25.1998 0.000123 0.000432 -10.2017 -19.6334 15.2567 
97.499 87.61 -168.325 87.1871 -21.325 -0.0112814 0.103456 1.85784 10.5485 -19.3557 -9.13284 -179.968 43.5 -4.2e-05 1e-05 -41.2829 2.37805 6.02895 42.3722 1.9e-05 -2.84217e-14 77.6751 5.43147 -10.5907 17.3 0 3e-06 21.4546 -1e-06 0.003093 0.103456 1.85782 -10.5485 -2.95587 0.124995 167.518 43.5 -2.7e-05 4e-06 -28.3281 6.87256 3.91464 42.3723 1.42109e-14 1e-05 87.5385 15.2211 -1.45687 17.3 -6e-06 1.7e-05 21.4546 -1.9e-05 -0.003116 6.90197 -2.60373 -3e-06 9.13633 1.55466 -0.814525 12.5881 1e-05 8e-06 8.25581 3.05802 -1.86452 12.3432 -1.8e-05 -5e-06 7.90066 3.05885 -2.03429 25.8329 2.3e-05 7e-06 6.54827 5.83533 -8.29986 11.7666 -8e-06 -6e-06 -20.4878 1.46207 11.6156 19.7459 -1.48035 6.0001 178.608 1.11994 -95.8707 11.2841 1.8e-05 -2e-05 -21.416 -17.3539 67.1881 33 -1.3e-05 1.9e-05 -77.3654 -1.54311 -4.66151 25.2 3.2e-05 1.1e-05 -27.2414 22.1872 7.33017 19.7461 -1.48036 -6.00008 -164.839 -7.03361 71.5587 11.2841 2.84217e-14 -1e-06 -18.2924 -7.85081 -45.0947 33.0001 1.6e-05 -1e-06 -122.221 -9.13474 25.0273 25.1998 0.000123 0.000432 -9.95805 -20.0926 15.7477 
98.5103 87.9131 -169.397 87.1623 -15.1092 0.917145 0.103456 1.85784 10.5485 -20.4146 -7.20785 179.568 43.5 -4.2e-05 1e-05 -40.6065 1.88326 5.63807 42.3722 1.9e-05 -2.84217e-14 75.4035 5.02246 -8.80967 17.3 1.42109e-14 3e-06 21.4546 -1e-06 0.003093 0.103456 1.85782 -10.5485 -1.81638 -2.46786 167.494 43.5 -2.7e-05 4e-06 -28.2475 7.96881 4.78232 42.3723 -1.42109e-14 1e-05 88.2734 15.0001 -3.71911 17.3 -6e-06 1.7e-05 21.4546 -1.9e-05 -0.003116 6.90197 -2.60373 -3e-06 9.39007 1.72087 -0.72677 12.5881 1e-05 8e-06 8.76115 3.4062 -1.72533 12.3432 -1.8e-05 -5e-06 8.40163 3.42264 -1.91637 25.8329 2.3e-05 7e-06 6.50823 6.76876 -9.18107 11.7666 -8e-06 -6e-06 -20.5188 3.64395 11.3025 19.7459 -1.48035 6.0001 178.695 1.69562 -95.7486 11.2841 1.8e-05 -2e-05 -20.7786 -17.1028 67.2264 33 -1.3e-05 1.9e-05 -76.8262 -0.975961 -4.38021 25.2 3.2e-05 1.1e-05 -27.2766 23.1448 7.13901 19.7461 -1.48036 -6.00008 -164.936 -6.89604 71.5419 11.2841 0 -1e-06 -17.8431 -6.50684 -44.9564 33.0001 1.6e-05 -1e-06 -122.265 -9.99495 24.3865 25.1998 0.000123 0.000432 -10.2776 -20.0602 15.7886 
